<svg xmlns="http://www.w3.org/2000/svg" version="1.1" xmlns:xlink="http://www.w3.org/1999/xlink" xmlns:svgjs="http://svgjs.com/svgjs" width="1000" height="1000"><svg xmlns="http://www.w3.org/2000/svg" version="1.1" xmlns:xlink="http://www.w3.org/1999/xlink" xmlns:svgjs="http://svgjs.dev/svgjs" width="1000" height="1000" viewBox="0 0 1000 1000"><rect width="1000" height="1000" fill="#000000"></rect><g transform="matrix(0.7,0,0,0.7,149.57575757575756,282.1265587044535)"><svg viewBox="0 0 396 247" data-background-color="#ffffff" preserveAspectRatio="xMidYMid meet" height="623" width="1000" xmlns="http://www.w3.org/2000/svg" xmlns:xlink="http://www.w3.org/1999/xlink"><g id="SvgjsG1003" transform="matrix(1,0,0,1,0.2400000000000091,-0.09999999999999432)"><svg viewBox="0 0 395.52 247.2" height="247.2" width="395.52"><g><svg></svg></g><g><svg viewBox="0 0 395.52 247.2" height="247.2" width="395.52"><g transform="matrix(1,0,0,1,116.47071147540983,47.215199999999996)"><svg viewBox="0 0 162.57857704918032 152.7696" height="152.7696" width="162.57857704918032"><g><svg viewBox="0 0 162.57857704918032 152.7696" height="152.7696" width="162.57857704918032"><g><svg viewBox="0 0 162.57857704918032 152.7696" height="152.7696" width="162.57857704918032"><g><svg viewBox="0 0 162.57857704918032 152.7696" height="152.7696" width="162.57857704918032"><g id="SvgjsG1002"><svg viewBox="0 0 162.57857704918032 152.7696" height="152.7696" width="162.57857704918032" id="SvgjsSvg1001"><g><svg viewBox="0 0 162.57857704918032 152.7696" height="152.7696" width="162.57857704918032"><g transform="matrix(1,0,0,1,0,0)"><svg width="162.57857704918032" viewBox="1.350000023841858 -25 38.95000076293945 36.599998474121094" height="152.7696" data-palette-color="#8b3c7f"><path d="M11.5 11.6L11.5 11.6Q8.55 11.6 6.28 10.78 4 9.95 2.68 8.47 1.35 7 1.35 4.95L1.35 4.95Q1.35 2.75 2.65 1.45 3.95 0.15 5.6-0.5L5.6-0.5Q4.4-0.95 3.63-1.73 2.85-2.5 2.85-3.95L2.85-3.95Q2.85-5.35 3.55-6.18 4.25-7 5.35-7.55L5.35-7.55Q4-8.65 3.3-10.28 2.6-11.9 2.6-13.85L2.6-13.85 2.6-15.75Q2.6-18.15 3.65-20 4.7-21.85 6.65-22.9 8.6-23.95 11.2-23.95L11.2-23.95Q12.95-23.95 14.45-23.4 15.95-22.85 17.05-21.85L17.05-21.85Q17.8-23.4 18.75-24.2 19.7-25 20.6-25L20.6-25Q21.35-25 21.73-24.58 22.1-24.15 22.1-23.7L22.1-23.7Q22.1-23.25 21.85-22.98 21.6-22.7 21.25-22.6L21.25-22.6Q20.65-22.5 19.88-22.05 19.1-21.6 18.45-20.45L18.45-20.45Q19.15-19.5 19.5-18.3 19.85-17.1 19.85-15.75L19.85-15.75 19.85-13.85Q19.85-11.5 18.75-9.6 17.65-7.7 15.68-6.63 13.7-5.55 11.15-5.55L11.15-5.55Q9-5.55 7.3-6.4L7.3-6.4Q6.75-6.1 6.25-5.68 5.75-5.25 5.75-4.45L5.75-4.45Q5.75-3.35 6.9-2.85 8.05-2.35 9.8-2.15 11.55-1.95 13.53-1.73 15.5-1.5 17.28-0.9 19.05-0.3 20.18 0.95 21.3 2.2 21.3 4.5L21.3 4.5Q21.3 6.85 20.03 8.43 18.75 10 16.55 10.8 14.35 11.6 11.5 11.6ZM11.45 9.15L11.45 9.15Q14.6 9.15 16.38 7.9 18.15 6.65 18.15 4.6L18.15 4.6Q18.15 3 17.18 2.18 16.2 1.35 14.73 1 13.25 0.65 11.68 0.5 10.1 0.35 8.95 0.2L8.95 0.2Q7.2 0.75 5.85 1.8 4.5 2.85 4.5 4.65L4.5 4.65Q4.5 6.65 6.35 7.9 8.2 9.15 11.45 9.15ZM11.25-8L11.25-8Q13.8-8 15.23-9.68 16.65-11.35 16.65-13.85L16.65-13.85 16.65-15.75Q16.65-18.2 15.23-19.85 13.8-21.5 11.2-21.5L11.2-21.5Q8.6-21.5 7.18-19.85 5.75-18.2 5.75-15.75L5.75-15.75 5.75-13.9Q5.75-11.4 7.2-9.7 8.65-8 11.25-8ZM32.25 0.35L32.25 0.35Q29.9 0.35 28.15-0.25 26.4-0.85 25.4-1.68 24.4-2.5 24.4-3.25L24.4-3.25Q24.4-3.6 24.55-3.93 24.7-4.25 24.97-4.5 25.25-4.75 25.55-4.75L25.55-4.75Q26.1-4.75 26.77-4.17 27.45-3.6 28.67-3 29.9-2.4 32.15-2.4L32.15-2.4Q35-2.4 36.15-3.48 37.3-4.55 37.3-5.95L37.3-5.95Q37.3-7.6 36.42-8.53 35.55-9.45 34.12-9.98 32.7-10.5 31.12-10.93 29.55-11.35 28.12-12.03 26.7-12.7 25.82-13.9 24.95-15.1 24.95-17.15L24.95-17.15Q24.95-18.75 25.75-20.33 26.55-21.9 28.27-22.93 30-23.95 32.85-23.95L32.85-23.95Q34.5-23.95 36.05-23.6 37.6-23.25 38.57-22.68 39.55-22.1 39.55-21.5L39.55-21.5Q39.55-21.25 39.37-20.85 39.2-20.45 38.9-20.13 38.6-19.8 38.2-19.8L38.2-19.8Q37.8-19.8 37.12-20.18 36.45-20.55 35.4-20.88 34.35-21.2 32.9-21.2L32.9-21.2Q31.1-21.2 30-20.55 28.9-19.9 28.4-19.03 27.9-18.15 27.9-17.3L27.9-17.3Q27.9-15.85 28.8-15.1 29.7-14.35 31.12-13.88 32.55-13.4 34.12-12.98 35.7-12.55 37.12-11.8 38.55-11.05 39.42-9.7 40.3-8.35 40.3-6.1L40.3-6.1Q40.3-3.15 38.2-1.4 36.1 0.35 32.25 0.35Z" opacity="1" transform="matrix(1,0,0,1,0,0)" fill="#ffffff" class="wordmark-text-0" data-fill-palette-color="primary" id="SvgjsPath1000"></path></svg></g></svg></g></svg></g></svg></g></svg></g></svg></g></svg></g><path d="M96.748 41.215L96.748 0 343.948 0 343.948 247.2 96.748 247.2 96.748 205.985 110.525 205.985 110.525 233.423 330.171 233.423 330.171 13.777 110.525 13.777 110.525 41.215Z" fill="#ffffff" stroke="transparent" data-fill-palette-color="primary"></path></svg></g><defs></defs></svg><rect width="395.52" height="247.2" fill="none" stroke="none" visibility="hidden"></rect></g></svg></g></svg><style>@media (prefers-color-scheme: light) { :root { filter: none; } }
</style></svg>